<svg xmlns="http://www.w3.org/2000/svg" viewBox="0 0 820 452"
     font-family="'JetBrains Mono', Consolas, monospace">

  <text x="20" y="24" font-size="11" fill="#7a6e62">operations</text>
  <line x1="70" y1="400" x2="70" y2="34" stroke="#c8bfb0" stroke-width="1.3"/>
  <line x1="66" y1="44" x2="70" y2="34" stroke="#c8bfb0" stroke-width="1.3"/>
  <line x1="74" y1="44" x2="70" y2="34" stroke="#c8bfb0" stroke-width="1.3"/>

  <line x1="70" y1="400" x2="626" y2="400" stroke="#c8bfb0" stroke-width="1.3"/>
  <line x1="616" y1="396" x2="626" y2="400" stroke="#c8bfb0" stroke-width="1.3"/>
  <line x1="616" y1="404" x2="626" y2="400" stroke="#c8bfb0" stroke-width="1.3"/>
  <text x="350" y="438" font-size="12" fill="#7a6e62"
        text-anchor="middle">n (input size)</text>

  <line x1="70.0" y1="400" x2="70.0" y2="406" stroke="#c8bfb0" stroke-width="1"/>
  <text x="70.0" y="418" font-size="10" fill="#7a6e62" text-anchor="middle">0</text>
  <line x1="180.0" y1="400" x2="180.0" y2="406" stroke="#c8bfb0" stroke-width="1"/>
  <text x="180.0" y="418" font-size="10" fill="#7a6e62" text-anchor="middle">2</text>
  <line x1="290.0" y1="400" x2="290.0" y2="406" stroke="#c8bfb0" stroke-width="1"/>
  <text x="290.0" y="418" font-size="10" fill="#7a6e62" text-anchor="middle">4</text>
  <line x1="400.0" y1="400" x2="400.0" y2="406" stroke="#c8bfb0" stroke-width="1"/>
  <text x="400.0" y="418" font-size="10" fill="#7a6e62" text-anchor="middle">6</text>
  <line x1="510.0" y1="400" x2="510.0" y2="406" stroke="#c8bfb0" stroke-width="1"/>
  <text x="510.0" y="418" font-size="10" fill="#7a6e62" text-anchor="middle">8</text>
  <line x1="620.0" y1="400" x2="620.0" y2="406" stroke="#c8bfb0" stroke-width="1"/>
  <text x="620.0" y="418" font-size="10" fill="#7a6e62" text-anchor="middle">10</text>

  <line x1="70" y1="310.0" x2="620" y2="310.0" stroke="#c8bfb0" stroke-width="0.6" stroke-dasharray="2,3"/>
  <line x1="70" y1="220.0" x2="620" y2="220.0" stroke="#c8bfb0" stroke-width="0.6" stroke-dasharray="2,3"/>
  <line x1="70" y1="130.0" x2="620" y2="130.0" stroke="#c8bfb0" stroke-width="0.6" stroke-dasharray="2,3"/>

  <polyline points="75.5,400.0 81.0,399.9 86.5,399.7 92.0,399.4 97.5,399.1 103.0,398.7 108.5,398.2 114.0,397.7 119.5,397.1 125.0,396.4 130.5,395.6 136.0,394.8 141.5,393.9 147.0,392.9 152.5,391.9 158.0,390.8 163.5,389.6 169.0,388.3 174.5,387.0 180.0,385.6 185.5,384.1 191.0,382.6 196.5,381.0 202.0,379.3 207.5,377.5 213.0,375.7 218.5,373.8 224.0,371.8 229.5,369.7 235.0,367.6 240.5,365.4 246.0,363.1 251.5,360.8 257.0,358.4 262.5,355.9 268.0,353.3 273.5,350.7 279.0,348.0 284.5,345.2 290.0,342.4 295.5,339.5 301.0,336.5 306.5,333.4 312.0,330.3 317.5,327.1 323.0,323.8 328.5,320.5 334.0,317.1 339.5,313.6 345.0,310.0 350.5,306.4 356.0,302.7 361.5,298.9 367.0,295.0 372.5,291.1 378.0,287.1 383.5,283.0 389.0,278.9 394.5,274.7 400.0,270.4 405.5,266.0 411.0,261.6 416.5,257.1 422.0,252.5 427.5,247.9 433.0,243.2 438.5,238.4 444.0,233.5 449.5,228.6 455.0,223.6 460.5,218.5 466.0,213.4 471.5,208.2 477.0,202.9 482.5,197.5 488.0,192.1 493.5,186.6 499.0,181.0 504.5,175.3 510.0,169.6 515.5,163.8 521.0,157.9 526.5,152.0 532.0,146.0 537.5,139.9 543.0,133.7 548.5,127.5 554.0,121.2 559.5,114.8 565.0,108.4 570.5,101.9 576.0,95.3 581.5,88.6 587.0,81.9 592.5,75.1 598.0,68.2 603.5,61.3 609.0,54.3 614.5,47.2 620.0,40.0" fill="none" stroke="#8859a3" stroke-width="2.2"/>
  <polyline points="75.5,401.2 81.0,401.7 86.5,401.9 92.0,401.9 97.5,401.8 103.0,401.6 108.5,401.3 114.0,400.9 119.5,400.5 125.0,400.0 130.5,399.5 136.0,398.9 141.5,398.2 147.0,397.6 152.5,396.8 158.0,396.1 163.5,395.3 169.0,394.5 174.5,393.7 180.0,392.8 185.5,391.9 191.0,391.0 196.5,390.1 202.0,389.1 207.5,388.1 213.0,387.1 218.5,386.1 224.0,385.0 229.5,384.0 235.0,382.9 240.5,381.8 246.0,380.7 251.5,379.5 257.0,378.4 262.5,377.2 268.0,376.0 273.5,374.9 279.0,373.7 284.5,372.4 290.0,371.2 295.5,370.0 301.0,368.7 306.5,367.4 312.0,366.1 317.5,364.8 323.0,363.5 328.5,362.2 334.0,360.9 339.5,359.6 345.0,358.2 350.5,356.8 356.0,355.5 361.5,354.1 367.0,352.7 372.5,351.3 378.0,349.9 383.5,348.5 389.0,347.0 394.5,345.6 400.0,344.2 405.5,342.7 411.0,341.2 416.5,339.8 422.0,338.3 427.5,336.8 433.0,335.3 438.5,333.8 444.0,332.3 449.5,330.8 455.0,329.3 460.5,327.7 466.0,326.2 471.5,324.6 477.0,323.1 482.5,321.5 488.0,319.9 493.5,318.4 499.0,316.8 504.5,315.2 510.0,313.6 515.5,312.0 521.0,310.4 526.5,308.8 532.0,307.2 537.5,305.5 543.0,303.9 548.5,302.2 554.0,300.6 559.5,299.0 565.0,297.3 570.5,295.6 576.0,294.0 581.5,292.3 587.0,290.6 592.5,288.9 598.0,287.2 603.5,285.5 609.0,283.8 614.5,282.1 620.0,280.4" fill="none" stroke="#c48a12" stroke-width="2.2"/>
  <polyline points="75.5,399.6 81.0,399.3 86.5,398.9 92.0,398.6 97.5,398.2 103.0,397.8 108.5,397.5 114.0,397.1 119.5,396.8 125.0,396.4 130.5,396.0 136.0,395.7 141.5,395.3 147.0,395.0 152.5,394.6 158.0,394.2 163.5,393.9 169.0,393.5 174.5,393.2 180.0,392.8 185.5,392.4 191.0,392.1 196.5,391.7 202.0,391.4 207.5,391.0 213.0,390.6 218.5,390.3 224.0,389.9 229.5,389.6 235.0,389.2 240.5,388.8 246.0,388.5 251.5,388.1 257.0,387.8 262.5,387.4 268.0,387.0 273.5,386.7 279.0,386.3 284.5,386.0 290.0,385.6 295.5,385.2 301.0,384.9 306.5,384.5 312.0,384.2 317.5,383.8 323.0,383.4 328.5,383.1 334.0,382.7 339.5,382.4 345.0,382.0 350.5,381.6 356.0,381.3 361.5,380.9 367.0,380.6 372.5,380.2 378.0,379.8 383.5,379.5 389.0,379.1 394.5,378.8 400.0,378.4 405.5,378.0 411.0,377.7 416.5,377.3 422.0,377.0 427.5,376.6 433.0,376.2 438.5,375.9 444.0,375.5 449.5,375.2 455.0,374.8 460.5,374.4 466.0,374.1 471.5,373.7 477.0,373.4 482.5,373.0 488.0,372.6 493.5,372.3 499.0,371.9 504.5,371.6 510.0,371.2 515.5,370.8 521.0,370.5 526.5,370.1 532.0,369.8 537.5,369.4 543.0,369.0 548.5,368.7 554.0,368.3 559.5,368.0 565.0,367.6 570.5,367.2 576.0,366.9 581.5,366.5 587.0,366.2 592.5,365.8 598.0,365.4 603.5,365.1 609.0,364.7 614.5,364.4 620.0,364.0" fill="none" stroke="#4d8b31" stroke-width="2.2"/>
  <polyline points="75.5,412.0 81.0,408.4 86.5,406.3 92.0,404.8 97.5,403.6 103.0,402.7 108.5,401.9 114.0,401.2 119.5,400.5 125.0,400.0 130.5,399.5 136.0,399.1 141.5,398.6 147.0,398.3 152.5,397.9 158.0,397.6 163.5,397.2 169.0,396.9 174.5,396.7 180.0,396.4 185.5,396.1 191.0,395.9 196.5,395.7 202.0,395.5 207.5,395.2 213.0,395.0 218.5,394.8 224.0,394.7 229.5,394.5 235.0,394.3 240.5,394.1 246.0,394.0 251.5,393.8 257.0,393.6 262.5,393.5 268.0,393.3 273.5,393.2 279.0,393.1 284.5,392.9 290.0,392.8 295.5,392.7 301.0,392.5 306.5,392.4 312.0,392.3 317.5,392.2 323.0,392.1 328.5,392.0 334.0,391.9 339.5,391.7 345.0,391.6 350.5,391.5 356.0,391.4 361.5,391.3 367.0,391.2 372.5,391.1 378.0,391.1 383.5,391.0 389.0,390.9 394.5,390.8 400.0,390.7 405.5,390.6 411.0,390.5 416.5,390.4 422.0,390.4 427.5,390.3 433.0,390.2 438.5,390.1 444.0,390.0 449.5,390.0 455.0,389.9 460.5,389.8 466.0,389.7 471.5,389.7 477.0,389.6 482.5,389.5 488.0,389.5 493.5,389.4 499.0,389.3 504.5,389.3 510.0,389.2 515.5,389.1 521.0,389.1 526.5,389.0 532.0,388.9 537.5,388.9 543.0,388.8 548.5,388.8 554.0,388.7 559.5,388.6 565.0,388.6 570.5,388.5 576.0,388.5 581.5,388.4 587.0,388.4 592.5,388.3 598.0,388.3 603.5,388.2 609.0,388.1 614.5,388.1 620.0,388.0" fill="none" stroke="#3f6fa8" stroke-width="2.2"/>
  <polyline points="75.5,396.4 81.0,396.4 86.5,396.4 92.0,396.4 97.5,396.4 103.0,396.4 108.5,396.4 114.0,396.4 119.5,396.4 125.0,396.4 130.5,396.4 136.0,396.4 141.5,396.4 147.0,396.4 152.5,396.4 158.0,396.4 163.5,396.4 169.0,396.4 174.5,396.4 180.0,396.4 185.5,396.4 191.0,396.4 196.5,396.4 202.0,396.4 207.5,396.4 213.0,396.4 218.5,396.4 224.0,396.4 229.5,396.4 235.0,396.4 240.5,396.4 246.0,396.4 251.5,396.4 257.0,396.4 262.5,396.4 268.0,396.4 273.5,396.4 279.0,396.4 284.5,396.4 290.0,396.4 295.5,396.4 301.0,396.4 306.5,396.4 312.0,396.4 317.5,396.4 323.0,396.4 328.5,396.4 334.0,396.4 339.5,396.4 345.0,396.4 350.5,396.4 356.0,396.4 361.5,396.4 367.0,396.4 372.5,396.4 378.0,396.4 383.5,396.4 389.0,396.4 394.5,396.4 400.0,396.4 405.5,396.4 411.0,396.4 416.5,396.4 422.0,396.4 427.5,396.4 433.0,396.4 438.5,396.4 444.0,396.4 449.5,396.4 455.0,396.4 460.5,396.4 466.0,396.4 471.5,396.4 477.0,396.4 482.5,396.4 488.0,396.4 493.5,396.4 499.0,396.4 504.5,396.4 510.0,396.4 515.5,396.4 521.0,396.4 526.5,396.4 532.0,396.4 537.5,396.4 543.0,396.4 548.5,396.4 554.0,396.4 559.5,396.4 565.0,396.4 570.5,396.4 576.0,396.4 581.5,396.4 587.0,396.4 592.5,396.4 598.0,396.4 603.5,396.4 609.0,396.4 614.5,396.4 620.0,396.4" fill="none" stroke="#12907c" stroke-width="2.2"/>
  <polyline points="75.5,396.1 81.0,395.9 86.5,395.6 92.0,395.2 97.5,394.9 103.0,394.5 108.5,394.2 114.0,393.7 119.5,393.3 125.0,392.8 130.5,392.3 136.0,391.7 141.5,391.1 147.0,390.5 152.5,389.8 158.0,389.1 163.5,388.3 169.0,387.5 174.5,386.6 180.0,385.6 185.5,384.6 191.0,383.5 196.5,382.3 202.0,381.0 207.5,379.6 213.0,378.2 218.5,376.6 224.0,374.9 229.5,373.1 235.0,371.2 240.5,369.1 246.0,366.9 251.5,364.5 257.0,362.0 262.5,359.3 268.0,356.3 273.5,353.2 279.0,349.9 284.5,346.3 290.0,342.4 295.5,338.3 301.0,333.8 306.5,329.1 312.0,324.0 317.5,318.5 323.0,312.7 328.5,306.4 334.0,299.7 339.5,292.5 345.0,284.8 350.5,276.5 356.0,267.7 361.5,258.2 367.0,248.0 372.5,237.1 378.0,225.4 383.5,212.9 389.0,199.4 394.5,185.0 400.0,169.6 405.5,153.1 411.0,135.3 416.5,116.3 422.0,96.0 427.5,74.2 433.0,50.8 435.4,40.0" fill="none" stroke="#c0392b" stroke-width="2.2"/>

  <line x1="435.4" y1="40.0" x2="435.4" y2="24"
        stroke="#c0392b" stroke-width="1.6" stroke-dasharray="3,3"/>
  <line x1="431.4" y1="32" x2="435.4" y2="24"
        stroke="#c0392b" stroke-width="1.6"/>
  <line x1="439.4" y1="32" x2="435.4" y2="24"
        stroke="#c0392b" stroke-width="1.6"/>

  <circle cx="620" cy="40" r="4" fill="#8859a3"/>
  <circle cx="620" cy="280.4" r="4" fill="#c48a12"/>
  <circle cx="620" cy="364" r="4" fill="#4d8b31"/>
  <circle cx="620" cy="388" r="4" fill="#3f6fa8"/>
  <circle cx="620" cy="396.4" r="4" fill="#12907c"/>
  <circle cx="435.4" cy="40.0" r="4" fill="#c0392b"/>

  <text x="435.4" y="14" font-size="12" font-weight="bold"
        fill="#c0392b" text-anchor="middle">O(2&#8319;)</text>
  <text x="628" y="44" font-size="12" font-weight="bold"
        fill="#8859a3">O(n&#178;)</text>
  <text x="628" y="284" font-size="12" font-weight="bold"
        fill="#c48a12">O(n log n)</text>
  <text x="628" y="368" font-size="12" font-weight="bold"
        fill="#4d8b31">O(n)</text>
  <text x="628" y="390" font-size="12" font-weight="bold"
        fill="#3f6fa8">O(log n)</text>
  <text x="628" y="404" font-size="12" font-weight="bold"
        fill="#12907c">O(1)</text>
</svg>
