<svg xmlns="http://www.w3.org/2000/svg" viewBox="0 0 950 470"
     font-family="'JetBrains Mono', Consolas, monospace">
  <defs>
    <marker id="dp-tri" viewBox="0 0 10 10" refX="9" refY="5"
            markerWidth="11" markerHeight="11" orient="auto">
      <path d="M0,0 L10,5 L0,10 Z" fill="#f5f0e8" stroke="#1a1612" stroke-width="1"/>
    </marker>
    <marker id="dp-diamond" viewBox="0 0 16 10" refX="1" refY="5"
            markerWidth="17" markerHeight="11" orient="auto">
      <path d="M1,5 L8,1 L15,5 L8,9 Z" fill="#f5f0e8" stroke="#1a1612" stroke-width="1"/>
    </marker>
  </defs>

  <!-- realization: Espresso, Cappuccino, and Extra implement Drink -->
  <line x1="105" y1="190" x2="430" y2="112" stroke="#7a6e62" stroke-width="1.2"
        stroke-dasharray="5,4" marker-end="url(#dp-tri)"/>
  <line x1="305" y1="190" x2="460" y2="112" stroke="#7a6e62" stroke-width="1.2"
        stroke-dasharray="5,4" marker-end="url(#dp-tri)"/>
  <line x1="535" y1="190" x2="500" y2="112" stroke="#7a6e62" stroke-width="1.2"
        stroke-dasharray="5,4" marker-end="url(#dp-tri)"/>

  <!-- inheritance: Whipped, Decaf, and ExtraShot extend Extra -->
  <line x1="435" y1="350" x2="480" y2="302" stroke="#1a1612" stroke-width="1.2"
        marker-end="url(#dp-tri)"/>
  <line x1="625" y1="350" x2="535" y2="302" stroke="#1a1612" stroke-width="1.2"
        marker-end="url(#dp-tri)"/>
  <line x1="815" y1="350" x2="590" y2="302" stroke="#1a1612" stroke-width="1.2"
        marker-end="url(#dp-tri)"/>

  <!-- aggregation: Extra "has a" Drink -->
  <path d="M640,220 Q 770,140 570,110" fill="none" stroke="#1a1612" stroke-width="1.2"
        marker-start="url(#dp-diamond)"/>
  <text x="705" y="152" font-size="11.5" fill="#1a1612" text-anchor="middle">drink</text>

  <!-- Drink protocol -->
  <rect x="380" y="20" width="190" height="90" fill="none" stroke="#c8bfb0" stroke-width="1.3" rx="4"/>
  <text x="475" y="40" font-size="11" font-style="italic" fill="#8b1a1a" text-anchor="middle">&#171;Protocol&#187;</text>
  <text x="475" y="60" font-size="16" font-weight="bold" fill="#1a1612" text-anchor="middle">Drink</text>
  <line x1="380" y1="70" x2="570" y2="70" stroke="#c8bfb0" stroke-width="1"/>
  <text x="475" y="87" font-size="12" fill="#1a1612" text-anchor="middle">+ cost: float</text>
  <text x="475" y="103" font-size="12" fill="#1a1612" text-anchor="middle">+ description: str</text>

  <!-- Espresso -->
  <rect x="20" y="190" width="170" height="90" fill="none" stroke="#c8bfb0" stroke-width="1.3" rx="4"/>
  <text x="105" y="212" font-size="15" font-weight="bold" fill="#1a1612" text-anchor="middle">Espresso</text>
  <line x1="20" y1="222" x2="190" y2="222" stroke="#c8bfb0" stroke-width="1"/>
  <text x="105" y="240" font-size="12" fill="#1a1612" text-anchor="middle">cost = 1.50</text>
  <text x="105" y="256" font-size="12" fill="#1a1612" text-anchor="middle">description = "Espresso"</text>

  <!-- Cappuccino -->
  <rect x="220" y="190" width="170" height="90" fill="none" stroke="#c8bfb0" stroke-width="1.3" rx="4"/>
  <text x="305" y="212" font-size="15" font-weight="bold" fill="#1a1612" text-anchor="middle">Cappuccino</text>
  <line x1="220" y1="222" x2="390" y2="222" stroke="#c8bfb0" stroke-width="1"/>
  <text x="305" y="240" font-size="12" fill="#1a1612" text-anchor="middle">cost = 1.75</text>
  <text x="305" y="256" font-size="12" fill="#1a1612" text-anchor="middle">description = "Cappuccino"</text>

  <!-- Extra -->
  <rect x="430" y="190" width="210" height="112" fill="none" stroke="#c8bfb0" stroke-width="1.3" rx="4"/>
  <text x="535" y="214" font-size="15" font-weight="bold" font-style="italic" fill="#1a1612" text-anchor="middle">Extra</text>
  <line x1="430" y1="224" x2="640" y2="224" stroke="#c8bfb0" stroke-width="1"/>
  <text x="535" y="242" font-size="12" fill="#1a1612" text-anchor="middle">drink: Drink</text>
  <text x="535" y="258" font-size="12" fill="#1a1612" text-anchor="middle">add_cost = 0.0</text>
  <text x="535" y="274" font-size="12" fill="#1a1612" text-anchor="middle">name = ""</text>
  <text x="535" y="293" font-size="11" fill="#7a6e62" text-anchor="middle">cost, description forward to drink</text>

  <!-- Whipped -->
  <rect x="350" y="350" width="170" height="90" fill="none" stroke="#c8bfb0" stroke-width="1.3" rx="4"/>
  <text x="435" y="372" font-size="15" font-weight="bold" fill="#1a1612" text-anchor="middle">Whipped</text>
  <line x1="350" y1="382" x2="520" y2="382" stroke="#c8bfb0" stroke-width="1"/>
  <text x="435" y="400" font-size="12" fill="#1a1612" text-anchor="middle">add_cost = 0.50</text>
  <text x="435" y="416" font-size="12" fill="#1a1612" text-anchor="middle">name = "Whipped cream"</text>

  <!-- Decaf -->
  <rect x="540" y="350" width="170" height="90" fill="none" stroke="#c8bfb0" stroke-width="1.3" rx="4"/>
  <text x="625" y="372" font-size="15" font-weight="bold" fill="#1a1612" text-anchor="middle">Decaf</text>
  <line x1="540" y1="382" x2="710" y2="382" stroke="#c8bfb0" stroke-width="1"/>
  <text x="625" y="400" font-size="12" fill="#1a1612" text-anchor="middle">add_cost = 0.0</text>
  <text x="625" y="416" font-size="12" fill="#1a1612" text-anchor="middle">name = "Decaf"</text>

  <!-- ExtraShot -->
  <rect x="730" y="350" width="170" height="90" fill="none" stroke="#c8bfb0" stroke-width="1.3" rx="4"/>
  <text x="815" y="372" font-size="15" font-weight="bold" fill="#1a1612" text-anchor="middle">ExtraShot</text>
  <line x1="730" y1="382" x2="900" y2="382" stroke="#c8bfb0" stroke-width="1"/>
  <text x="815" y="400" font-size="12" fill="#1a1612" text-anchor="middle">add_cost = 0.75</text>
  <text x="815" y="416" font-size="12" fill="#1a1612" text-anchor="middle">name = "Extra shot"</text>
</svg>
