<svg xmlns="http://www.w3.org/2000/svg" viewBox="0 0 730 696"
     font-family="'JetBrains Mono', Consolas, monospace">
  <title>Four steps of Flyweight: tile() builds a Tile on the first request for a symbol and keeps it, returns that same Tile on every later request, two cells pass their own positions to the one shared water Tile and get two answers, and a direct Tile() call builds a second, equal object</title>
  <defs>
    <marker id="fs-red" viewBox="0 0 18 12" refX="5" refY="6"
            markerWidth="18" markerHeight="12" orient="auto" markerUnits="userSpaceOnUse">
      <path d="M0.5,0.5 L17.4,6 L0.5,11.5 L5,6 Z" fill="#8b1a1a" stroke="#8b1a1a" stroke-width="0.8" stroke-linejoin="round"/>
    </marker>
    <marker id="fs-muted" viewBox="0 0 18 12" refX="5" refY="6"
            markerWidth="18" markerHeight="12" orient="auto" markerUnits="userSpaceOnUse">
      <path d="M0.5,0.5 L17.4,6 L0.5,11.5 L5,6 Z" fill="#7a6e62" stroke="#7a6e62" stroke-width="0.8" stroke-linejoin="round"/>
    </marker>
  </defs>
  <rect x="336" y="24" width="170" height="118" fill="none" stroke="#1a1612" stroke-width="1.3" rx="4"/>
  <text x="346" y="44" font-size="13" fill="#1a1612" font-weight="bold" text-anchor="start">tile()</text>
  <text x="346" y="60" font-size="10" fill="#7a6e62" text-anchor="start">@cache</text>
  <rect x="446" y="32" width="50" height="28" fill="none" stroke="#1a1612" stroke-width="1.1" rx="3"/>
  <text x="471" y="50" font-size="11" fill="#1a1612" text-anchor="middle">"."</text>
  <rect x="446" y="72" width="50" height="28" fill="none" stroke="#8b1a1a" stroke-width="1.6" rx="3"/>
  <text x="471" y="90" font-size="11" fill="#8b1a1a" text-anchor="middle">"~"</text>
  <rect x="446" y="112" width="50" height="28" fill="none" stroke="#c8bfb0" stroke-width="1.1" rx="3" stroke-dasharray="4,3"/>
  <text x="22" y="54" font-size="30" fill="#8b1a1a" font-weight="bold" text-anchor="start">1</text>
  <text x="22" y="76" font-size="13" fill="#1a1612" font-weight="bold" text-anchor="start">first call</text>
  <text x="22" y="96" font-size="10.5" fill="#7a6e62" text-anchor="start">no "~" entry,</text>
  <text x="22" y="111" font-size="10.5" fill="#7a6e62" text-anchor="start">so tile()</text>
  <text x="22" y="126" font-size="10.5" fill="#7a6e62" text-anchor="start">builds a Tile</text>
  <text x="22" y="141" font-size="10.5" fill="#7a6e62" text-anchor="start">and keeps it</text>
  <text x="150" y="36" font-size="10" fill="#7a6e62" text-anchor="start">field</text>
  <path d="M150,44 H172 V66 H150 Z" fill="#eeeeee" stroke="#c8bfb0" stroke-width="0.8"/>
  <text x="161" y="59" font-size="12" fill="#1a1612" text-anchor="middle">.</text>
  <path d="M172,44 H194 V66 H172 Z" fill="#eeeeee" stroke="#c8bfb0" stroke-width="0.8"/>
  <text x="183" y="59" font-size="12" fill="#1a1612" text-anchor="middle">.</text>
  <path d="M194,44 H216 V66 H194 Z" fill="none" stroke="#c8bfb0" stroke-width="0.8"/>
  <text x="205" y="59" font-size="12" fill="#1a1612" text-anchor="middle">~</text>
  <path d="M216,44 H238 V66 H216 Z" fill="none" stroke="#c8bfb0" stroke-width="0.8"/>
  <text x="227" y="59" font-size="12" fill="#7a6e62" text-anchor="middle">~</text>
  <path d="M238,44 H260 V66 H238 Z" fill="none" stroke="#c8bfb0" stroke-width="0.8"/>
  <text x="249" y="59" font-size="12" fill="#7a6e62" text-anchor="middle">.</text>
  <path d="M260,44 H282 V66 H260 Z" fill="none" stroke="#c8bfb0" stroke-width="0.8"/>
  <text x="271" y="59" font-size="12" fill="#7a6e62" text-anchor="middle">.</text>
  <path d="M150,66 H172 V88 H150 Z" fill="none" stroke="#c8bfb0" stroke-width="0.8"/>
  <text x="161" y="81" font-size="12" fill="#7a6e62" text-anchor="middle">.</text>
  <path d="M172,66 H194 V88 H172 Z" fill="none" stroke="#c8bfb0" stroke-width="0.8"/>
  <text x="183" y="81" font-size="12" fill="#7a6e62" text-anchor="middle">.</text>
  <path d="M194,66 H216 V88 H194 Z" fill="none" stroke="#c8bfb0" stroke-width="0.8"/>
  <text x="205" y="81" font-size="12" fill="#7a6e62" text-anchor="middle">~</text>
  <path d="M216,66 H238 V88 H216 Z" fill="none" stroke="#c8bfb0" stroke-width="0.8"/>
  <text x="227" y="81" font-size="12" fill="#7a6e62" text-anchor="middle">~</text>
  <path d="M238,66 H260 V88 H238 Z" fill="none" stroke="#c8bfb0" stroke-width="0.8"/>
  <text x="249" y="81" font-size="12" fill="#7a6e62" text-anchor="middle">.</text>
  <path d="M260,66 H282 V88 H260 Z" fill="none" stroke="#c8bfb0" stroke-width="0.8"/>
  <text x="271" y="81" font-size="12" fill="#7a6e62" text-anchor="middle">#</text>
  <path d="M150,88 H172 V110 H150 Z" fill="none" stroke="#c8bfb0" stroke-width="0.8"/>
  <text x="161" y="103" font-size="12" fill="#7a6e62" text-anchor="middle">.</text>
  <path d="M172,88 H194 V110 H172 Z" fill="none" stroke="#c8bfb0" stroke-width="0.8"/>
  <text x="183" y="103" font-size="12" fill="#7a6e62" text-anchor="middle">.</text>
  <path d="M194,88 H216 V110 H194 Z" fill="none" stroke="#c8bfb0" stroke-width="0.8"/>
  <text x="205" y="103" font-size="12" fill="#7a6e62" text-anchor="middle">.</text>
  <path d="M216,88 H238 V110 H216 Z" fill="none" stroke="#c8bfb0" stroke-width="0.8"/>
  <text x="227" y="103" font-size="12" fill="#7a6e62" text-anchor="middle">.</text>
  <path d="M238,88 H260 V110 H238 Z" fill="none" stroke="#c8bfb0" stroke-width="0.8"/>
  <text x="249" y="103" font-size="12" fill="#7a6e62" text-anchor="middle">.</text>
  <path d="M260,88 H282 V110 H260 Z" fill="none" stroke="#c8bfb0" stroke-width="0.8"/>
  <text x="271" y="103" font-size="12" fill="#7a6e62" text-anchor="middle">.</text>
  <path d="M150,110 H172 V132 H150 Z" fill="none" stroke="#c8bfb0" stroke-width="0.8"/>
  <text x="161" y="125" font-size="12" fill="#7a6e62" text-anchor="middle">#</text>
  <path d="M172,110 H194 V132 H172 Z" fill="none" stroke="#c8bfb0" stroke-width="0.8"/>
  <text x="183" y="125" font-size="12" fill="#7a6e62" text-anchor="middle">#</text>
  <path d="M194,110 H216 V132 H194 Z" fill="none" stroke="#c8bfb0" stroke-width="0.8"/>
  <text x="205" y="125" font-size="12" fill="#7a6e62" text-anchor="middle">.</text>
  <path d="M216,110 H238 V132 H216 Z" fill="none" stroke="#c8bfb0" stroke-width="0.8"/>
  <text x="227" y="125" font-size="12" fill="#7a6e62" text-anchor="middle">.</text>
  <path d="M238,110 H260 V132 H238 Z" fill="none" stroke="#c8bfb0" stroke-width="0.8"/>
  <text x="249" y="125" font-size="12" fill="#7a6e62" text-anchor="middle">~</text>
  <path d="M260,110 H282 V132 H260 Z" fill="none" stroke="#c8bfb0" stroke-width="0.8"/>
  <text x="271" y="125" font-size="12" fill="#7a6e62" text-anchor="middle">~</text>
  <path d="M194,44 H216 V66 H194 Z" fill="none" stroke="#8b1a1a" stroke-width="2"/>
  <line x1="205" y1="44" x2="205" y2="34" stroke="#8b1a1a" stroke-width="1.6"/>
  <line x1="205" y1="34" x2="319.6" y2="34.0" stroke="#8b1a1a" stroke-width="1.6" marker-end="url(#fs-red)"/>
  <text x="306" y="28" font-size="10" fill="#8b1a1a" text-anchor="end">tile("~")</text>
  <text x="346" y="100" font-size="10.5" fill="#8b1a1a" text-anchor="start">SPECS["~"]</text>
  <text x="346" y="116" font-size="10" fill="#7a6e62" text-anchor="start">then</text>
  <text x="346" y="132" font-size="10.5" fill="#8b1a1a" text-anchor="start">Tile(...)</text>
  <rect x="540" y="32" width="170" height="28" fill="none" stroke="#c8bfb0" stroke-width="1.3" rx="4"/>
  <text x="625" y="50" font-size="10.5" fill="#1a1612" text-anchor="middle">Tile(".", "grass", True)</text>
  <line x1="496" y1="46" x2="523.6" y2="46.0" stroke="#7a6e62" stroke-width="1.1" marker-end="url(#fs-muted)"/>
  <rect x="540" y="72" width="170" height="28" fill="none" stroke="#8b1a1a" stroke-width="1.6" rx="4"/>
  <text x="625" y="90" font-size="10.5" fill="#8b1a1a" text-anchor="middle">Tile("~", "water", False)</text>
  <line x1="496" y1="86" x2="523.6" y2="86.0" stroke="#8b1a1a" stroke-width="1.6" marker-end="url(#fs-red)"/>
  <line x1="16" y1="160" x2="714" y2="160" stroke="#c8bfb0" stroke-width="0.8"/>
  <rect x="336" y="178" width="170" height="118" fill="none" stroke="#1a1612" stroke-width="1.3" rx="4"/>
  <text x="346" y="198" font-size="13" fill="#1a1612" font-weight="bold" text-anchor="start">tile()</text>
  <text x="346" y="214" font-size="10" fill="#7a6e62" text-anchor="start">@cache</text>
  <rect x="446" y="186" width="50" height="28" fill="none" stroke="#1a1612" stroke-width="1.1" rx="3"/>
  <text x="471" y="204" font-size="11" fill="#1a1612" text-anchor="middle">"."</text>
  <rect x="446" y="226" width="50" height="28" fill="none" stroke="#8b1a1a" stroke-width="1.6" rx="3"/>
  <text x="471" y="244" font-size="11" fill="#8b1a1a" text-anchor="middle">"~"</text>
  <rect x="446" y="266" width="50" height="28" fill="none" stroke="#c8bfb0" stroke-width="1.1" rx="3" stroke-dasharray="4,3"/>
  <text x="22" y="208" font-size="30" fill="#8b1a1a" font-weight="bold" text-anchor="start">2</text>
  <text x="22" y="230" font-size="13" fill="#1a1612" font-weight="bold" text-anchor="start">again</text>
  <text x="22" y="250" font-size="10.5" fill="#7a6e62" text-anchor="start">the entry</text>
  <text x="22" y="265" font-size="10.5" fill="#7a6e62" text-anchor="start">exists, so</text>
  <text x="22" y="280" font-size="10.5" fill="#7a6e62" text-anchor="start">tile() returns</text>
  <text x="22" y="295" font-size="10.5" fill="#7a6e62" text-anchor="start">the same Tile</text>
  <text x="150" y="190" font-size="10" fill="#7a6e62" text-anchor="start">field</text>
  <path d="M150,198 H172 V220 H150 Z" fill="#eeeeee" stroke="#c8bfb0" stroke-width="0.8"/>
  <text x="161" y="213" font-size="12" fill="#1a1612" text-anchor="middle">.</text>
  <path d="M172,198 H194 V220 H172 Z" fill="#eeeeee" stroke="#c8bfb0" stroke-width="0.8"/>
  <text x="183" y="213" font-size="12" fill="#1a1612" text-anchor="middle">.</text>
  <path d="M194,198 H216 V220 H194 Z" fill="#eeeeee" stroke="#c8bfb0" stroke-width="0.8"/>
  <text x="205" y="213" font-size="12" fill="#1a1612" text-anchor="middle">~</text>
  <path d="M216,198 H238 V220 H216 Z" fill="none" stroke="#c8bfb0" stroke-width="0.8"/>
  <text x="227" y="213" font-size="12" fill="#1a1612" text-anchor="middle">~</text>
  <path d="M238,198 H260 V220 H238 Z" fill="none" stroke="#c8bfb0" stroke-width="0.8"/>
  <text x="249" y="213" font-size="12" fill="#7a6e62" text-anchor="middle">.</text>
  <path d="M260,198 H282 V220 H260 Z" fill="none" stroke="#c8bfb0" stroke-width="0.8"/>
  <text x="271" y="213" font-size="12" fill="#7a6e62" text-anchor="middle">.</text>
  <path d="M150,220 H172 V242 H150 Z" fill="none" stroke="#c8bfb0" stroke-width="0.8"/>
  <text x="161" y="235" font-size="12" fill="#7a6e62" text-anchor="middle">.</text>
  <path d="M172,220 H194 V242 H172 Z" fill="none" stroke="#c8bfb0" stroke-width="0.8"/>
  <text x="183" y="235" font-size="12" fill="#7a6e62" text-anchor="middle">.</text>
  <path d="M194,220 H216 V242 H194 Z" fill="none" stroke="#c8bfb0" stroke-width="0.8"/>
  <text x="205" y="235" font-size="12" fill="#7a6e62" text-anchor="middle">~</text>
  <path d="M216,220 H238 V242 H216 Z" fill="none" stroke="#c8bfb0" stroke-width="0.8"/>
  <text x="227" y="235" font-size="12" fill="#7a6e62" text-anchor="middle">~</text>
  <path d="M238,220 H260 V242 H238 Z" fill="none" stroke="#c8bfb0" stroke-width="0.8"/>
  <text x="249" y="235" font-size="12" fill="#7a6e62" text-anchor="middle">.</text>
  <path d="M260,220 H282 V242 H260 Z" fill="none" stroke="#c8bfb0" stroke-width="0.8"/>
  <text x="271" y="235" font-size="12" fill="#7a6e62" text-anchor="middle">#</text>
  <path d="M150,242 H172 V264 H150 Z" fill="none" stroke="#c8bfb0" stroke-width="0.8"/>
  <text x="161" y="257" font-size="12" fill="#7a6e62" text-anchor="middle">.</text>
  <path d="M172,242 H194 V264 H172 Z" fill="none" stroke="#c8bfb0" stroke-width="0.8"/>
  <text x="183" y="257" font-size="12" fill="#7a6e62" text-anchor="middle">.</text>
  <path d="M194,242 H216 V264 H194 Z" fill="none" stroke="#c8bfb0" stroke-width="0.8"/>
  <text x="205" y="257" font-size="12" fill="#7a6e62" text-anchor="middle">.</text>
  <path d="M216,242 H238 V264 H216 Z" fill="none" stroke="#c8bfb0" stroke-width="0.8"/>
  <text x="227" y="257" font-size="12" fill="#7a6e62" text-anchor="middle">.</text>
  <path d="M238,242 H260 V264 H238 Z" fill="none" stroke="#c8bfb0" stroke-width="0.8"/>
  <text x="249" y="257" font-size="12" fill="#7a6e62" text-anchor="middle">.</text>
  <path d="M260,242 H282 V264 H260 Z" fill="none" stroke="#c8bfb0" stroke-width="0.8"/>
  <text x="271" y="257" font-size="12" fill="#7a6e62" text-anchor="middle">.</text>
  <path d="M150,264 H172 V286 H150 Z" fill="none" stroke="#c8bfb0" stroke-width="0.8"/>
  <text x="161" y="279" font-size="12" fill="#7a6e62" text-anchor="middle">#</text>
  <path d="M172,264 H194 V286 H172 Z" fill="none" stroke="#c8bfb0" stroke-width="0.8"/>
  <text x="183" y="279" font-size="12" fill="#7a6e62" text-anchor="middle">#</text>
  <path d="M194,264 H216 V286 H194 Z" fill="none" stroke="#c8bfb0" stroke-width="0.8"/>
  <text x="205" y="279" font-size="12" fill="#7a6e62" text-anchor="middle">.</text>
  <path d="M216,264 H238 V286 H216 Z" fill="none" stroke="#c8bfb0" stroke-width="0.8"/>
  <text x="227" y="279" font-size="12" fill="#7a6e62" text-anchor="middle">.</text>
  <path d="M238,264 H260 V286 H238 Z" fill="none" stroke="#c8bfb0" stroke-width="0.8"/>
  <text x="249" y="279" font-size="12" fill="#7a6e62" text-anchor="middle">~</text>
  <path d="M260,264 H282 V286 H260 Z" fill="none" stroke="#c8bfb0" stroke-width="0.8"/>
  <text x="271" y="279" font-size="12" fill="#7a6e62" text-anchor="middle">~</text>
  <path d="M216,198 H238 V220 H216 Z" fill="none" stroke="#8b1a1a" stroke-width="2"/>
  <line x1="227" y1="198" x2="227" y2="188" stroke="#8b1a1a" stroke-width="1.6"/>
  <line x1="227" y1="188" x2="319.6" y2="188.0" stroke="#8b1a1a" stroke-width="1.6" marker-end="url(#fs-red)"/>
  <text x="306" y="182" font-size="10" fill="#8b1a1a" text-anchor="end">tile("~")</text>
  <text x="346" y="254" font-size="10.5" fill="#7a6e62" text-anchor="start">body does</text>
  <text x="346" y="270" font-size="10.5" fill="#7a6e62" text-anchor="start">not run</text>
  <rect x="540" y="186" width="170" height="28" fill="none" stroke="#c8bfb0" stroke-width="1.3" rx="4"/>
  <text x="625" y="204" font-size="10.5" fill="#1a1612" text-anchor="middle">Tile(".", "grass", True)</text>
  <line x1="496" y1="200" x2="523.6" y2="200.0" stroke="#7a6e62" stroke-width="1.1" marker-end="url(#fs-muted)"/>
  <rect x="540" y="226" width="170" height="28" fill="none" stroke="#1a1612" stroke-width="1.3" rx="4"/>
  <text x="625" y="244" font-size="10.5" fill="#1a1612" text-anchor="middle">Tile("~", "water", False)</text>
  <line x1="496" y1="240" x2="523.6" y2="240.0" stroke="#8b1a1a" stroke-width="1.6" marker-end="url(#fs-red)"/>
  <text x="625" y="268" font-size="10" fill="#8b1a1a" text-anchor="middle">the object from step 1</text>
  <line x1="16" y1="314" x2="714" y2="314" stroke="#c8bfb0" stroke-width="0.8"/>
  <text x="22" y="362" font-size="30" fill="#8b1a1a" font-weight="bold" text-anchor="start">3</text>
  <text x="22" y="384" font-size="13" fill="#1a1612" font-weight="bold" text-anchor="start">context</text>
  <text x="22" y="404" font-size="10.5" fill="#7a6e62" text-anchor="start">each caller</text>
  <text x="22" y="419" font-size="10.5" fill="#7a6e62" text-anchor="start">passes its</text>
  <text x="22" y="434" font-size="10.5" fill="#7a6e62" text-anchor="start">position to</text>
  <text x="22" y="449" font-size="10.5" fill="#7a6e62" text-anchor="start">the one Tile</text>
  <text x="150" y="344" font-size="10" fill="#7a6e62" text-anchor="start">field</text>
  <path d="M150,352 H172 V374 H150 Z" fill="#eeeeee" stroke="#c8bfb0" stroke-width="0.8"/>
  <text x="161" y="367" font-size="12" fill="#1a1612" text-anchor="middle">.</text>
  <path d="M172,352 H194 V374 H172 Z" fill="#eeeeee" stroke="#c8bfb0" stroke-width="0.8"/>
  <text x="183" y="367" font-size="12" fill="#1a1612" text-anchor="middle">.</text>
  <path d="M194,352 H216 V374 H194 Z" fill="#eeeeee" stroke="#c8bfb0" stroke-width="0.8"/>
  <text x="205" y="367" font-size="12" fill="#1a1612" text-anchor="middle">~</text>
  <path d="M216,352 H238 V374 H216 Z" fill="#eeeeee" stroke="#c8bfb0" stroke-width="0.8"/>
  <text x="227" y="367" font-size="12" fill="#1a1612" text-anchor="middle">~</text>
  <path d="M238,352 H260 V374 H238 Z" fill="#eeeeee" stroke="#c8bfb0" stroke-width="0.8"/>
  <text x="249" y="367" font-size="12" fill="#1a1612" text-anchor="middle">.</text>
  <path d="M260,352 H282 V374 H260 Z" fill="#eeeeee" stroke="#c8bfb0" stroke-width="0.8"/>
  <text x="271" y="367" font-size="12" fill="#1a1612" text-anchor="middle">.</text>
  <path d="M150,374 H172 V396 H150 Z" fill="#eeeeee" stroke="#c8bfb0" stroke-width="0.8"/>
  <text x="161" y="389" font-size="12" fill="#1a1612" text-anchor="middle">.</text>
  <path d="M172,374 H194 V396 H172 Z" fill="#eeeeee" stroke="#c8bfb0" stroke-width="0.8"/>
  <text x="183" y="389" font-size="12" fill="#1a1612" text-anchor="middle">.</text>
  <path d="M194,374 H216 V396 H194 Z" fill="#eeeeee" stroke="#c8bfb0" stroke-width="0.8"/>
  <text x="205" y="389" font-size="12" fill="#1a1612" text-anchor="middle">~</text>
  <path d="M216,374 H238 V396 H216 Z" fill="#eeeeee" stroke="#c8bfb0" stroke-width="0.8"/>
  <text x="227" y="389" font-size="12" fill="#1a1612" text-anchor="middle">~</text>
  <path d="M238,374 H260 V396 H238 Z" fill="#eeeeee" stroke="#c8bfb0" stroke-width="0.8"/>
  <text x="249" y="389" font-size="12" fill="#1a1612" text-anchor="middle">.</text>
  <path d="M260,374 H282 V396 H260 Z" fill="#eeeeee" stroke="#c8bfb0" stroke-width="0.8"/>
  <text x="271" y="389" font-size="12" fill="#1a1612" text-anchor="middle">#</text>
  <path d="M150,396 H172 V418 H150 Z" fill="#eeeeee" stroke="#c8bfb0" stroke-width="0.8"/>
  <text x="161" y="411" font-size="12" fill="#1a1612" text-anchor="middle">.</text>
  <path d="M172,396 H194 V418 H172 Z" fill="#eeeeee" stroke="#c8bfb0" stroke-width="0.8"/>
  <text x="183" y="411" font-size="12" fill="#1a1612" text-anchor="middle">.</text>
  <path d="M194,396 H216 V418 H194 Z" fill="#eeeeee" stroke="#c8bfb0" stroke-width="0.8"/>
  <text x="205" y="411" font-size="12" fill="#1a1612" text-anchor="middle">.</text>
  <path d="M216,396 H238 V418 H216 Z" fill="#eeeeee" stroke="#c8bfb0" stroke-width="0.8"/>
  <text x="227" y="411" font-size="12" fill="#1a1612" text-anchor="middle">.</text>
  <path d="M238,396 H260 V418 H238 Z" fill="#eeeeee" stroke="#c8bfb0" stroke-width="0.8"/>
  <text x="249" y="411" font-size="12" fill="#1a1612" text-anchor="middle">.</text>
  <path d="M260,396 H282 V418 H260 Z" fill="#eeeeee" stroke="#c8bfb0" stroke-width="0.8"/>
  <text x="271" y="411" font-size="12" fill="#1a1612" text-anchor="middle">.</text>
  <path d="M150,418 H172 V440 H150 Z" fill="#eeeeee" stroke="#c8bfb0" stroke-width="0.8"/>
  <text x="161" y="433" font-size="12" fill="#1a1612" text-anchor="middle">#</text>
  <path d="M172,418 H194 V440 H172 Z" fill="#eeeeee" stroke="#c8bfb0" stroke-width="0.8"/>
  <text x="183" y="433" font-size="12" fill="#1a1612" text-anchor="middle">#</text>
  <path d="M194,418 H216 V440 H194 Z" fill="#eeeeee" stroke="#c8bfb0" stroke-width="0.8"/>
  <text x="205" y="433" font-size="12" fill="#1a1612" text-anchor="middle">.</text>
  <path d="M216,418 H238 V440 H216 Z" fill="#eeeeee" stroke="#c8bfb0" stroke-width="0.8"/>
  <text x="227" y="433" font-size="12" fill="#1a1612" text-anchor="middle">.</text>
  <path d="M238,418 H260 V440 H238 Z" fill="#eeeeee" stroke="#c8bfb0" stroke-width="0.8"/>
  <text x="249" y="433" font-size="12" fill="#1a1612" text-anchor="middle">~</text>
  <path d="M260,418 H282 V440 H260 Z" fill="#eeeeee" stroke="#c8bfb0" stroke-width="0.8"/>
  <text x="271" y="433" font-size="12" fill="#1a1612" text-anchor="middle">~</text>
  <path d="M194,352 H216 V374 H194 Z" fill="none" stroke="#8b1a1a" stroke-width="2"/>
  <path d="M260,418 H282 V440 H260 Z" fill="none" stroke="#8b1a1a" stroke-width="2"/>
  <rect x="540" y="370" width="170" height="28" fill="none" stroke="#8b1a1a" stroke-width="1.6" rx="4"/>
  <text x="625" y="388" font-size="10.5" fill="#1a1612" text-anchor="middle">Tile("~", "water", False)</text>
  <text x="710" y="414" font-size="10" fill="#7a6e62" text-anchor="end">one shared object</text>
  <line x1="205" y1="352" x2="205" y2="336" stroke="#8b1a1a" stroke-width="1.6"/>
  <line x1="205" y1="336" x2="570" y2="336" stroke="#8b1a1a" stroke-width="1.6"/>
  <line x1="570" y1="336" x2="570.0" y2="353.6" stroke="#8b1a1a" stroke-width="1.6" marker-end="url(#fs-red)"/>
  <text x="300" y="330" font-size="10.5" fill="#8b1a1a" text-anchor="start">field[0][2].label(0, 2)</text>
  <text x="300" y="352" font-size="10.5" fill="#1a1612" text-anchor="start">water at (0, 2)</text>
  <line x1="282" y1="429" x2="570" y2="429" stroke="#8b1a1a" stroke-width="1.6"/>
  <line x1="570" y1="429" x2="570.0" y2="414.4" stroke="#8b1a1a" stroke-width="1.6" marker-end="url(#fs-red)"/>
  <text x="300" y="423" font-size="10.5" fill="#8b1a1a" text-anchor="start">field[3][5].label(3, 5)</text>
  <text x="300" y="445" font-size="10.5" fill="#1a1612" text-anchor="start">water at (3, 5)</text>
  <text x="150" y="478" font-size="10" fill="#7a6e62" text-anchor="start">extrinsic: row and column, from the caller</text>
  <text x="710" y="478" font-size="10" fill="#7a6e62" text-anchor="end">intrinsic: in the Tile</text>
  <line x1="16" y1="486" x2="714" y2="486" stroke="#c8bfb0" stroke-width="0.8"/>
  <rect x="336" y="504" width="170" height="118" fill="none" stroke="#1a1612" stroke-width="1.3" rx="4"/>
  <text x="346" y="524" font-size="13" fill="#1a1612" font-weight="bold" text-anchor="start">tile()</text>
  <text x="346" y="540" font-size="10" fill="#7a6e62" text-anchor="start">@cache</text>
  <rect x="446" y="512" width="50" height="28" fill="none" stroke="#1a1612" stroke-width="1.1" rx="3"/>
  <text x="471" y="530" font-size="11" fill="#1a1612" text-anchor="middle">"."</text>
  <rect x="446" y="552" width="50" height="28" fill="none" stroke="#1a1612" stroke-width="1.1" rx="3"/>
  <text x="471" y="570" font-size="11" fill="#1a1612" text-anchor="middle">"~"</text>
  <rect x="446" y="592" width="50" height="28" fill="none" stroke="#1a1612" stroke-width="1.1" rx="3"/>
  <text x="471" y="610" font-size="11" fill="#1a1612" text-anchor="middle">"#"</text>
  <text x="22" y="534" font-size="30" fill="#8b1a1a" font-weight="bold" text-anchor="start">4</text>
  <text x="22" y="556" font-size="13" fill="#1a1612" font-weight="bold" text-anchor="start">bypass</text>
  <text x="22" y="576" font-size="10.5" fill="#7a6e62" text-anchor="start">a direct Tile()</text>
  <text x="22" y="591" font-size="10.5" fill="#7a6e62" text-anchor="start">call skips</text>
  <text x="22" y="606" font-size="10.5" fill="#7a6e62" text-anchor="start">tile() and builds</text>
  <text x="22" y="621" font-size="10.5" fill="#7a6e62" text-anchor="start">a second object</text>
  <text x="150" y="516" font-size="10" fill="#7a6e62" text-anchor="start">field</text>
  <path d="M150,524 H172 V546 H150 Z" fill="#eeeeee" stroke="#c8bfb0" stroke-width="0.8"/>
  <text x="161" y="539" font-size="12" fill="#1a1612" text-anchor="middle">.</text>
  <path d="M172,524 H194 V546 H172 Z" fill="#eeeeee" stroke="#c8bfb0" stroke-width="0.8"/>
  <text x="183" y="539" font-size="12" fill="#1a1612" text-anchor="middle">.</text>
  <path d="M194,524 H216 V546 H194 Z" fill="#eeeeee" stroke="#c8bfb0" stroke-width="0.8"/>
  <text x="205" y="539" font-size="12" fill="#1a1612" text-anchor="middle">~</text>
  <path d="M216,524 H238 V546 H216 Z" fill="#eeeeee" stroke="#c8bfb0" stroke-width="0.8"/>
  <text x="227" y="539" font-size="12" fill="#1a1612" text-anchor="middle">~</text>
  <path d="M238,524 H260 V546 H238 Z" fill="#eeeeee" stroke="#c8bfb0" stroke-width="0.8"/>
  <text x="249" y="539" font-size="12" fill="#1a1612" text-anchor="middle">.</text>
  <path d="M260,524 H282 V546 H260 Z" fill="#eeeeee" stroke="#c8bfb0" stroke-width="0.8"/>
  <text x="271" y="539" font-size="12" fill="#1a1612" text-anchor="middle">.</text>
  <path d="M150,546 H172 V568 H150 Z" fill="#eeeeee" stroke="#c8bfb0" stroke-width="0.8"/>
  <text x="161" y="561" font-size="12" fill="#1a1612" text-anchor="middle">.</text>
  <path d="M172,546 H194 V568 H172 Z" fill="#eeeeee" stroke="#c8bfb0" stroke-width="0.8"/>
  <text x="183" y="561" font-size="12" fill="#1a1612" text-anchor="middle">.</text>
  <path d="M194,546 H216 V568 H194 Z" fill="#eeeeee" stroke="#c8bfb0" stroke-width="0.8"/>
  <text x="205" y="561" font-size="12" fill="#1a1612" text-anchor="middle">~</text>
  <path d="M216,546 H238 V568 H216 Z" fill="#eeeeee" stroke="#c8bfb0" stroke-width="0.8"/>
  <text x="227" y="561" font-size="12" fill="#1a1612" text-anchor="middle">~</text>
  <path d="M238,546 H260 V568 H238 Z" fill="#eeeeee" stroke="#c8bfb0" stroke-width="0.8"/>
  <text x="249" y="561" font-size="12" fill="#1a1612" text-anchor="middle">.</text>
  <path d="M260,546 H282 V568 H260 Z" fill="#eeeeee" stroke="#c8bfb0" stroke-width="0.8"/>
  <text x="271" y="561" font-size="12" fill="#1a1612" text-anchor="middle">#</text>
  <path d="M150,568 H172 V590 H150 Z" fill="#eeeeee" stroke="#c8bfb0" stroke-width="0.8"/>
  <text x="161" y="583" font-size="12" fill="#1a1612" text-anchor="middle">.</text>
  <path d="M172,568 H194 V590 H172 Z" fill="#eeeeee" stroke="#c8bfb0" stroke-width="0.8"/>
  <text x="183" y="583" font-size="12" fill="#1a1612" text-anchor="middle">.</text>
  <path d="M194,568 H216 V590 H194 Z" fill="#eeeeee" stroke="#c8bfb0" stroke-width="0.8"/>
  <text x="205" y="583" font-size="12" fill="#1a1612" text-anchor="middle">.</text>
  <path d="M216,568 H238 V590 H216 Z" fill="#eeeeee" stroke="#c8bfb0" stroke-width="0.8"/>
  <text x="227" y="583" font-size="12" fill="#1a1612" text-anchor="middle">.</text>
  <path d="M238,568 H260 V590 H238 Z" fill="#eeeeee" stroke="#c8bfb0" stroke-width="0.8"/>
  <text x="249" y="583" font-size="12" fill="#1a1612" text-anchor="middle">.</text>
  <path d="M260,568 H282 V590 H260 Z" fill="#eeeeee" stroke="#c8bfb0" stroke-width="0.8"/>
  <text x="271" y="583" font-size="12" fill="#1a1612" text-anchor="middle">.</text>
  <path d="M150,590 H172 V612 H150 Z" fill="#eeeeee" stroke="#c8bfb0" stroke-width="0.8"/>
  <text x="161" y="605" font-size="12" fill="#1a1612" text-anchor="middle">#</text>
  <path d="M172,590 H194 V612 H172 Z" fill="#eeeeee" stroke="#c8bfb0" stroke-width="0.8"/>
  <text x="183" y="605" font-size="12" fill="#1a1612" text-anchor="middle">#</text>
  <path d="M194,590 H216 V612 H194 Z" fill="#eeeeee" stroke="#c8bfb0" stroke-width="0.8"/>
  <text x="205" y="605" font-size="12" fill="#1a1612" text-anchor="middle">.</text>
  <path d="M216,590 H238 V612 H216 Z" fill="#eeeeee" stroke="#c8bfb0" stroke-width="0.8"/>
  <text x="227" y="605" font-size="12" fill="#1a1612" text-anchor="middle">.</text>
  <path d="M238,590 H260 V612 H238 Z" fill="#eeeeee" stroke="#c8bfb0" stroke-width="0.8"/>
  <text x="249" y="605" font-size="12" fill="#1a1612" text-anchor="middle">~</text>
  <path d="M260,590 H282 V612 H260 Z" fill="#eeeeee" stroke="#c8bfb0" stroke-width="0.8"/>
  <text x="271" y="605" font-size="12" fill="#1a1612" text-anchor="middle">~</text>
  <rect x="540" y="512" width="170" height="28" fill="none" stroke="#c8bfb0" stroke-width="1.3" rx="4"/>
  <text x="625" y="530" font-size="10.5" fill="#1a1612" text-anchor="middle">Tile(".", "grass", True)</text>
  <line x1="496" y1="526" x2="523.6" y2="526.0" stroke="#7a6e62" stroke-width="1.1" marker-end="url(#fs-muted)"/>
  <rect x="540" y="552" width="170" height="28" fill="none" stroke="#c8bfb0" stroke-width="1.3" rx="4"/>
  <text x="625" y="570" font-size="10.5" fill="#1a1612" text-anchor="middle">Tile("~", "water", False)</text>
  <line x1="496" y1="566" x2="523.6" y2="566.0" stroke="#7a6e62" stroke-width="1.1" marker-end="url(#fs-muted)"/>
  <rect x="540" y="592" width="170" height="28" fill="none" stroke="#c8bfb0" stroke-width="1.3" rx="4"/>
  <text x="625" y="610" font-size="10.5" fill="#1a1612" text-anchor="middle">Tile("#", "rock", False)</text>
  <line x1="496" y1="606" x2="523.6" y2="606.0" stroke="#7a6e62" stroke-width="1.1" marker-end="url(#fs-muted)"/>
  <rect x="540" y="636" width="170" height="28" fill="none" stroke="#8b1a1a" stroke-width="1.6" rx="4"/>
  <text x="625" y="654" font-size="10.5" fill="#1a1612" text-anchor="middle">Tile("~", "water", False)</text>
  <text x="150" y="654" font-size="10" fill="#1a1612" text-anchor="start">bypassed = Tile("~", "water", False)</text>
  <text x="150" y="674" font-size="10" fill="#1a1612" text-anchor="start">assert bypassed == tile("~")</text>
  <text x="150" y="689" font-size="10" fill="#8b1a1a" text-anchor="start">assert bypassed is not tile("~")</text>
  <line x1="376" y1="650" x2="523.6" y2="650.0" stroke="#8b1a1a" stroke-width="1.6" marker-end="url(#fs-red)"/>
</svg>
